<?xml version="1.0" encoding="utf-8" ?>
<svg baseProfile="tiny" height="100%" version="1.2" width="100%" xmlns="http://www.w3.org/2000/svg" xmlns:ev="http://www.w3.org/2001/xml-events" xmlns:xlink="http://www.w3.org/1999/xlink"><defs><linearGradient id="vert_lin_grad" x1="0" x2="0" y1="0" y2="1"><stop offset="0%" stop-color="blue" /><stop offset="50%" stop-color="green" /><stop offset="100%" stop-color="yellow" /></linearGradient></defs><rect fill="red" height="200" stroke="rgb(10%,10%,16%)" width="300" x="10" y="10" /><circle cx="25" cy="25" fill="white" r="10" stroke="rgb(15%,15%,15%)" /><text fill="rgb(15%,15%,15%)" font-size="15px" font-weight="bold" stroke="none" x="21" y="30">1</text><text fill="#900" font-family="Arial" font-size="90px" font-weight="bold" stroke="none" x="55" y="125">ABC</text><text fill="#A90690" font-family="Courier New" font-size="66px" font-weight="bold" stroke="#500" stroke-width="2" x="50" y="180">12345</text><text fill="white" x="40" y="40">rectangle w/ black stroke &amp; red fill</text><rect fill="none" height="190" stroke="rgb(10%,10%,16%)" width="300" x="10" y="220" /><text fill="black" x="40" y="250">rectangle w/ black stroke &amp; no fill</text><circle cx="26" cy="235" fill="#eeeeee" r="10" stroke="rgb(15%,15%,15%)" /><text fill="rgb(15%,15%,15%)" font-size="15px" font-weight="bold" stroke="none" x="22" y="240">2</text><rect fill="url(#vert_lin_grad)" height="120" stroke="rgb(10%,10%,16%)" width="240" x="35" y="270" /><text fill="white" x="60" y="330">rectangle w/ linear gradient</text><rect fill="blue" height="400" stroke="rgb(10%,10%,16%)" width="400" x="320" y="10" /><text fill="yellow" x="360" y="40">rectangle w/ black stroke &amp; blue fill</text><circle cx="335" cy="25" fill="#eeeeee" r="10" stroke="rgb(15%,15%,15%)" /><text fill="rgb(15%,15%,15%)" font-size="15px" font-weight="bold" stroke="none" x="331" y="30">3</text><circle cx="520" cy="220" fill="yellow" r="90" stroke="rgb(10%,10%,16%)" /><circle cx="495" cy="195" fill="black" r="10" stroke="rgb(10%,10%,16%)" /><circle cx="550" cy="195" fill="black" r="10" stroke="rgb(10%,10%,16%)" /><path d="M470,240 C490,290, 550,290, 570,240" fill="none" stroke="#000" stroke-width="12" /></svg>